/* XPM */
static char *_b8dc7f38044455b999b722bc9ed3c46[] = {
/* columns rows colors chars-per-pixel */
"32 32 208 2 ",
"   c #7F5908",
".  c #777364",
"X  c #77766A",
"o  c #78776A",
"O  c #805908",
"+  c #876108",
"@  c #8C6209",
"#  c #8B6909",
"$  c #926A09",
"%  c #9B6E0A",
"&  c #937409",
"*  c #9C730A",
"=  c #A4730A",
"-  c #A57B0A",
";  c #AC7B0B",
":  c #867747",
">  c #887849",
",  c #9E850A",
"<  c #9E880A",
"1  c #A4870A",
"2  c #AA830B",
"3  c #B3820B",
"4  c #B9850C",
"5  c #B48D0B",
"6  c #BB8B0C",
"7  c #AE9C0C",
"8  c #BD910C",
"9  c #B29C0C",
"0  c #BDA30C",
"q  c #BDAE0D",
"w  c #BA9528",
"e  c #A79E32",
"r  c #BAB035",
"t  c #C28A0C",
"y  c #C3940C",
"u  c #C9930D",
"i  c #C29C0C",
"p  c #CF9C0D",
"a  c #D59D0D",
"s  c #DA9D0E",
"d  c #C3A40C",
"f  c #C7A80C",
"g  c #CEAB0D",
"h  c #D4A40D",
"j  c #D3AA0D",
"k  c #D9AB0E",
"l  c #C2B30D",
"z  c #CDB40E",
"x  c #CBBC0D",
"c  c #D5B60D",
"v  c #D9B30E",
"b  c #D4BC0E",
"n  c #CFAD1F",
"m  c #D9A516",
"M  c #DFBF16",
"N  c #D1B41D",
"B  c #DCBB1A",
"V  c #E2A50E",
"C  c #E1AB0E",
"Z  c #E1B30E",
"A  c #E2BC0E",
"S  c #E4A516",
"D  c #E3A914",
"F  c #E5A71A",
"G  c #E3AB1A",
"H  c #E3B416",
"J  c #E2BE15",
"K  c #E3B01C",
"L  c #E3BF1A",
"P  c #C0A528",
"I  c #CDBD23",
"U  c #D2BE27",
"Y  c #C0B331",
"T  c #E5AD24",
"R  c #E7AD2F",
"E  c #E5B525",
"W  c #E5BC23",
"Q  c #E6B32D",
"!  c #E6B92A",
"~  c #E7AF34",
"^  c #E7B634",
"/  c #E8B237",
"(  c #E7B937",
")  c #E8B43A",
"_  c #E7B83B",
"`  c #CFC10E",
"'  c #D6C40E",
"]  c #DCC40F",
"[  c #DCCB0F",
"{  c #DFD00F",
"}  c #DFC912",
"|  c #D3C21C",
" . c #D9C018",
".. c #DDCF1B",
"X. c #DFD016",
"o. c #E1C40F",
"O. c #E1CC0F",
"+. c #E1D10F",
"@. c #E2C414",
"#. c #E1CC13",
"$. c #E1C018",
"%. c #E4CB1E",
"&. c #E1D214",
"*. c #E2D31B",
"=. c #CFC32B",
"-. c #D3C021",
";. c #D9CE36",
":. c #E6C32B",
">. c #E3D523",
",. c #E6D32C",
"<. c #E7CA35",
"1. c #E2C53F",
"2. c #E8CF3D",
"3. c #E5D432",
"4. c #E8D33E",
"5. c #9F8C41",
"6. c #8B8759",
"7. c #958454",
"8. c #A59D4D",
"9. c #AAA34E",
"0. c #B0A441",
"q. c #BEA747",
"w. c #B4A759",
"e. c #848263",
"r. c #8B886C",
"t. c #8F8972",
"y. c #83817C",
"u. c #89877E",
"i. c #9A9773",
"p. c #C0B24B",
"a. c #E9B645",
"s. c #E9B841",
"d. c #EAB74D",
"f. c #EAB94C",
"g. c #EBBA53",
"h. c #ECBD5A",
"j. c #CFBC67",
"k. c #C5BE68",
"l. c #EDBF61",
"z. c #DAC54E",
"x. c #E9CE45",
"c. c #E9C24A",
"v. c #E3CC4C",
"b. c #EACB4D",
"n. c #E3D644",
"m. c #E5D944",
"M. c #E5DA4D",
"N. c #EAC051",
"B. c #EBC55B",
"V. c #E3D35C",
"C. c #DED673",
"Z. c #EDC363",
"A. c #EEC46C",
"S. c #E3DA66",
"D. c #E8DF6C",
"F. c #EEC570",
"G. c #EACD79",
"H. c #E7DF74",
"J. c #848484",
"K. c #8D8B83",
"L. c #8D8D89",
"P. c #979580",
"I. c #91908C",
"U. c #99968B",
"Y. c gray58",
"T. c #989796",
"R. c #9B9A97",
"E. c #9B9A9A",
"W. c #B2AE86",
"Q. c #BCB48B",
"!. c #A3A199",
"~. c gray66",
"^. c #B5B5B5",
"/. c #BBBAB0",
"(. c gray74",
"). c #D1C488",
"_. c #DFCD89",
"`. c #EAD087",
"'. c #E5DB83",
"]. c #E6D88B",
"[. c #ECD896",
"{. c #E6DD9B",
"}. c #DBD6A4",
"|. c #DBD8B2",
" X c #E6DBA2",
".X c #EDE9AB",
"XX c #E6E1B5",
"oX c #EEE3B4",
"OX c #E7E4BB",
"+X c #ECE5BE",
"@X c #CBCBCB",
"#X c #DEDCCF",
"$X c #D4D4D4",
"%X c #DDDDDC",
"&X c #E5DEC7",
"*X c #E4E0C3",
"=X c #E5E4CE",
"-X c #E9E2C9",
";X c #EEEACB",
":X c #E4E2D3",
">X c #E2E2DC",
",X c #F0EBD4",
"<X c #F0EDDA",
"1X c #E3E3E3",
"2X c #ECECEC",
"3X c #F1EFE5",
"4X c gray94",
"5X c None",
/* pixels */
"5X5X5X5X5X5X5X5X5X5X5X5X5X5X5X5X5X5X5X5X5X5X5X5X5X5X5X5X5X5X5X5X",
"5X5X5X5X5X5X5X5X5X5X5X5X5X5XZ.B.Z.B.5X5X5X5X5X5X5X5X5X5X5X5X5X5X",
"5X5X5X5X5X5X5X5X5X5XA.A.Z.h.N.c.c.c.b.b.b.x.5X5X5X5X5X5X5X5X5X5X",
"5X5X5X5X5X5X5X5XF.A.h.f.) Q E E L W :.<.<.2.x.4.5X5X5X5X5X5X5X5X",
"5X5X5X5X5X5X5XZ.h.a.R G C C C Z Z A A A @.%.,.3.,.5X5X5X5X5X5X5X",
"5X5X5X5X5X5Xl.g.~ F V V C C Z Z Z A o.o.O.O.#.%.>.>.5X5X5X5X5X5X",
"5X5X5X5X5Xl.d.R S V V K B.[.+X,X3X3X3X<X;XoXH.>.*.*.*.5X5X5X5X5X",
"5X5X5X5Xl.g.R S V D G.,X2X2X^.T.K.u.K.E.^.1X@X;.&.&.&.&.5X5X5X5X",
"5X5X5Xl.g.~ F V G oX4X$Xu.5.P N B B  .I Y 9.r.=.+.&.&.#.] 5X5X5X",
"5X5X5Xg./ F V V `.4X$Xt.n A o.o.[ O.{ +.+.&.X.#.+.+.#.] b 5X5X5X",
"5X5Xh.a.T V C C -X2X(.q.A A o.o.O.O.+.+.+.+.+.+.+.O.O.O.c z 5X5X",
"5X5Xg./ D V C C &X1X%Xj.o.o.O.O.O.O.+.+.+.+.+.+.+.+.O.o.c f 5X5X",
"5X5Xa.Q V C C Z _.$X>X:Xv.o.O.#.+.+.+.+.>.M.&.#.{ o.o.o.c 0 5X5X",
"5Xf._ T C C Z Z H Q.(.1X1X{.m.+.+.+.+.D.<X2X}.#.o.o.o.A v i 5X5X",
"5Xs.^ K Z Z Z A A J w.R.(.1X1X*XH.m..X4X$Xu.0.O.o.o.o.A v i 5 5X",
"5X_ Q H Z Z A A A o.o.U 8.P.(.>X1X2X2X1XW.U O.o.] A A Z v 8 3 5X",
"5X( ! H Z A A o.o.O.O.O.{ { C.%X$X@X$X>X&XV.o.] A A Z Z k 8 ; 5X",
"5X! ! H A A A o.o.O.O.+.+.S.=X$XJ.6.i.(.>X1X{.L A Z Z Z h 6 - 5X",
"5X! W J A o.o.o.O.O.+.+.*.|.~.o e O.[ p./.%X1X).A Z Z C p 3 5X5X",
"5X5XW $.A o.O.O.O.O.+.+.{ ..r | O.O.o.] z.$X%X!.Z C k V y ; 5X5X",
"5X5X$.@.o.o.O.O.+.+.+.+.+.+.+.O.O.O.o.] J #X$XU.Z C C s 4 % 5X5X",
"5X5XA %.o.O.O.O.*.+.+.+.+.+.O.O.O.o.o.A 1.>X@XK.C V V u = @ 5X5X",
"5X5X5Xo.[ [ +.+.OX'.m.*.O.O.O.o.o.o.J v.-X%XY.7.C V a ; $ 5X5X5X",
"5X5X5Xo.' [ { +.%X%X1X=XXX{.'.'.]. X-X1X$XJ.: m V a t = @ 5X5X5X",
"5X5X5X5Xb ` [ { k.e.X o y.L.T.E.R.I.y.. : w C V s t = @ 5X5X5X5X",
"5X5X5X5X5Xx ` [ { O.O.O.} o.o.A A A Z C C C V s t ; @ 5X5X5X5X5X",
"5X5X5X5X5X5Xl x ' { O.o.o.] A A Z v Z C V V s t = @ 5X5X5X5X5X5X",
"5X5X5X5X5X5X5Xq q z ] ] o.A A A Z Z C C s u ; % @ 5X5X5X5X5X5X5X",
"5X5X5X5X5X5X5X5X7 7 9 0 f z j j h p u 8 ; % @ O 5X5X5X5X5X5X5X5X",
"5X5X5X5X5X5X5X5X5X5X< < 1 1 2 2 2 - % $ @ O 5X5X5X5X5X5X5X5X5X5X",
"5X5X5X5X5X5X5X5X5X5X5X5X5X& & $ # @ @ 5X5X5X5X5X5X5X5X5X5X5X5X5X",
"5X5X5X5X5X5X5X5X5X5X5X5X5X5X5X5X5X5X5X5X5X5X5X5X5X5X5X5X5X5X5X5X"
};
