/* XPM */
static char *_556c84c3dee41478387658115b76605[] = {
/* columns rows colors chars-per-pixel */
"64 64 256 2 ",
"   c #5E4306",
".  c #634606",
"X  c #664906",
"o  c #6A4B07",
"O  c #714F07",
"+  c #6D5107",
"@  c #745307",
"#  c #7A5608",
"$  c #7D5908",
"%  c #755908",
"&  c #7B6408",
"*  c #7F6808",
"=  c #7A745A",
"-  c #7D7555",
";  c #737164",
":  c #787668",
">  c #797979",
",  c #787672",
"<  c #825D08",
"1  c #856108",
"2  c #8C6509",
"3  c #816B08",
"4  c #896B09",
"5  c #936C09",
"6  c #9A6D0A",
"7  c #897609",
"8  c #8D7B09",
"9  c #847008",
"0  c #9C730A",
"q  c #9F790A",
"w  c #967109",
"e  c #A3740A",
"r  c #A37D0A",
"t  c #AD7D0B",
"y  c #B07C0B",
"u  c #837D51",
"i  c #837D5C",
"p  c #827D64",
"a  c #96860A",
"s  c #98840A",
"d  c #9C8C0A",
"f  c #9F910B",
"g  c #AA840B",
"h  c #AC8A0B",
"j  c #A6870A",
"k  c #BB860C",
"l  c #B8880C",
"z  c #A0930B",
"x  c #AA970B",
"c  c #B3930B",
"v  c #B3990C",
"b  c #BB9B0C",
"n  c #BC900C",
"m  c #AEA20C",
"M  c #B6A90C",
"N  c #BCAD0D",
"B  c #B7A50C",
"V  c #BDB00D",
"C  c #96893E",
"Z  c #B7982B",
"A  c #A28E3D",
"S  c #B09B35",
"D  c #BBAD2B",
"F  c #ADA335",
"G  c #BAAE39",
"H  c #BAB13B",
"J  c #C98F0D",
"K  c #C48F0C",
"L  c #C2940C",
"P  c #CC930D",
"I  c #CB9B0D",
"U  c #C19A0C",
"Y  c #D69B0D",
"T  c #DC9F0E",
"R  c #D0960D",
"E  c #C3A30C",
"W  c #CAA10D",
"Q  c #C8AC0D",
"!  c #DDA10E",
"~  c #C3B40D",
"^  c #CCB30E",
"/  c #CDBB0E",
"(  c #D3BC0E",
")  c #DBBD0E",
"_  c #D3B30D",
"`  c #CDA71D",
"'  c #DFAB10",
"]  c #DAB816",
"[  c #E2A50E",
"{  c #E2AB0E",
"}  c #E2B40E",
"|  c #E1BC0E",
" . c #E4A413",
".. c #E2AB13",
"X. c #E5A71A",
"o. c #E4AA1B",
"O. c #E2BC12",
"+. c #E3BC1E",
"@. c #C39C23",
"#. c #C8A426",
"$. c #C3B42B",
"%. c #C8B826",
"&. c #CDBC31",
"*. c #D8BB3A",
"=. c #D5BB2E",
"-. c #E6AB25",
";. c #E6AD2B",
":. c #E4B322",
">. c #E4BB22",
",. c #E6B22B",
"<. c #E5BB2A",
"1. c #E7AF34",
"2. c #E7BC35",
"3. c #E8B339",
"4. c #E7BB3A",
"5. c #E8BB3E",
"6. c #E7B333",
"7. c #CFC10E",
"8. c #D4C40E",
"9. c #DCC50F",
"0. c #DDCB0F",
"q. c #DDCC13",
"w. c #D9C21C",
"e. c #DCCB1A",
"r. c #D5C21C",
"t. c #E1C40F",
"y. c #E1CC0F",
"u. c #E1D10F",
"i. c #E2C313",
"p. c #E1CB12",
"a. c #E2C61D",
"s. c #E1D213",
"d. c #E3D31C",
"f. c #CFC42F",
"g. c #DACD21",
"h. c #D8C422",
"j. c #E4C223",
"k. c #E3CA23",
"l. c #E2CD2C",
"z. c #E2C72B",
"x. c #E3D524",
"c. c #E5D52D",
"v. c #E5CB33",
"b. c #E6C73B",
"n. c #E4D632",
"m. c #E5D53B",
"M. c #E6D93A",
"N. c #85814F",
"B. c #958B4C",
"V. c #948945",
"C. c #8C825A",
"Z. c #979358",
"A. c #A59845",
"S. c #B59F56",
"D. c #B89D47",
"F. c #B3A749",
"G. c #BEB547",
"H. c #B4A55A",
"J. c #AAA24F",
"K. c #85847A",
"L. c #94937E",
"P. c #908D66",
"I. c #A7A17E",
"U. c #C7BD46",
"Y. c #D5BB42",
"T. c #C1AA55",
"R. c #E9BA45",
"E. c #E6BE49",
"W. c #EABA4B",
"Q. c #E9B543",
"!. c #EBBC53",
"~. c #ECBE5A",
"^. c #CBC24E",
"/. c #D8C95A",
"(. c #E8C641",
"). c #E6C748",
"_. c #E4D745",
"`. c #E8D544",
"'. c #EAD34C",
"]. c #E4D748",
"[. c #ECC15C",
"{. c #E8C856",
"}. c #EBD25B",
"|. c #E8D655",
" X c #EDC365",
".X c #ECCD63",
"XX c #EEC56D",
"oX c #EDCD6B",
"OX c #E2C86B",
"+X c #EDD163",
"@X c #E6DC64",
"#X c #EDD06B",
"$X c #E7D869",
"%X c #EFC672",
"&X c #EFCB74",
"*X c #EFCE78",
"=X c #F0CB7D",
"-X c #E5D974",
";X c #E5DD7B",
":X c #EAD27F",
">X c #838382",
",X c #8D8D8C",
"<X c #97958B",
"1X c #949494",
"2X c #9C9C9C",
"3X c #A09E8C",
"4X c #A8A183",
"5X c #B7B298",
"6X c #A4A4A4",
"7X c #ABABAB",
"8X c #B5B4A7",
"9X c #B5B5B5",
"0X c #BBBBBB",
"qX c #C0BFBA",
"wX c #CCC596",
"eX c #F1CE83",
"rX c #E5DB84",
"tX c #E6D68B",
"yX c #E8DB9C",
"uX c #EAE185",
"iX c #EAE397",
"pX c #CFCCA9",
"aX c #C9C6B0",
"sX c #E9DBA7",
"dX c #E9DEBC",
"fX c #E6DEB5",
"gX c #EDE7AA",
"hX c #E6E1B8",
"jX c #EDE5BD",
"kX c #ECE8B7",
"lX c #C3C3C3",
"zX c #CCCCCC",
"xX c #D4D4D3",
"cX c #DBDBDB",
"vX c #D8D8D6",
"bX c #DCD8C9",
"nX c #E0DEC4",
"mX c #E1DDC8",
"MX c #E0DFD7",
"NX c #E9E4C3",
"BX c #E6E3CB",
"VX c #EDE9CB",
"CX c #E7E2C6",
"ZX c #E7E5DC",
"AX c #E8E6DC",
"SX c #E6E4D8",
"DX c #F0ECDB",
"FX c #F0EDD6",
"GX c #E3E3E3",
"HX c #ECEBE3",
"JX c #EAEAEA",
"KX c #F1EEE2",
"LX c #F1EFE8",
"PX c #F2F1EC",
"IX c #F1F1F1",
"UX c None",
/* pixels */
"UXUXUXUXUXUXUXUXUXUXUXUXUXUXUXUXUXUXUXUXUXUXUXUXUXUXUXUXUXUXUXUXUXUXUXUXUXUXUXUXUXUXUXUXUXUXUXUXUXUXUXUXUXUXUXUXUXUXUXUXUXUXUXUX",
"UXUXUXUXUXUXUXUXUXUXUXUXUXUXUXUXUXUXUXUXUXUXUXUXUXUXUXUXUXUXUXUXUXUXUXUXUXUXUXUXUXUXUXUXUXUXUXUXUXUXUXUXUXUXUXUXUXUXUXUXUXUXUXUX",
"UXUXUXUXUXUXUXUXUXUXUXUXUXUXUXUXUXUXUXUXUXUXUXUXUXUXUXUXUXUXUXUXUXUXUXUXUXUXUXUXUXUXUXUXUXUXUXUXUXUXUXUXUXUXUXUXUXUXUXUXUXUXUXUX",
"UXUXUXUXUXUXUXUXUXUXUXUXUXUXUXUXUXUXUXUXUXUXUXUXUXeX=XeX*X*X*X*XoXoX#X#X+X+X+XUXUXUXUXUXUXUXUXUXUXUXUXUXUXUXUXUXUXUXUXUXUXUXUXUX",
"UXUXUXUXUXUXUXUXUXUXUXUXUXUXUXUXUXUXUXUXUXUXeXeXeX=X=X*X*X#XXX.X.X.X+X+X+X.X}.}.}.}.UXUXUXUXUXUXUXUXUXUXUXUXUXUXUXUXUXUXUXUXUXUX",
"UXUXUXUXUXUXUXUXUXUXUXUXUXUXUXUXUXUXUXeXeXeX=X=X&X#X[.W.(.5.5.2.2.2.(.(.(.'.'.}.}.}.}.'.UXUXUXUXUXUXUXUXUXUXUXUXUXUXUXUXUXUXUXUX",
"UXUXUXUXUXUXUXUXUXUXUXUXUXUXUXUXUXUXeXeXeX*X X!.R.6.:...{ { } } } } } } | +.>.2.m.'.'.'.`.`.UXUXUXUXUXUXUXUXUXUXUXUXUXUXUXUXUXUX",
"UXUXUXUXUXUXUXUXUXUXUXUXUXUXUXUXeXeXeX&X[.R.,.o.{ { [ { { } { } } } | } | | t.t.t.k.v.m.`.`.`.`.UXUXUXUXUXUXUXUXUXUXUXUXUXUXUXUX",
"UXUXUXUXUXUXUXUXUXUXUXUXUXUXeXeX=X%X XW.;.X.[ { [ { { { { } } } } } | | | t.| t.t.y.p.a.c.m.`.m.M.M.UXUXUXUXUXUXUXUXUXUXUXUXUXUX",
"UXUXUXUXUXUXUXUXUXUXUXUXUXeXeXeX XW.;.X. .[ [ [ { { } { } } } } } | | | | t.t.t.t.t.y.y.p.d.c.n.n.c.c.UXUXUXUXUXUXUXUXUXUXUXUXUX",
"UXUXUXUXUXUXUXUXUXUXUXUXeXeX%X~.1.X.[ [ [ [ [ { { { { } } } } | | | | | | t.t.t.y.t.y.y.y.u.s.d.c.c.c.x.UXUXUXUXUXUXUXUXUXUXUXUX",
"UXUXUXUXUXUXUXUXUXUXUX=X=X%X!.;. . .[ [ [ [ { { { { { } } } } } | | | t.t.t.t.| y.y.y.y.y.y.u.u.d.x.x.x.x.UXUXUXUXUXUXUXUXUXUXUX",
"UXUXUXUXUXUXUXUXUXUX=X=XXX!.-.T [ [ [ [ { [ { ..} } <.{.:XsXjXVXFXKXLXKXKXDXFXVXjXgXtX$Xm.d.s.u.u.d.x.x.d.d.UXUXUXUXUXUXUXUXUXUX",
"UXUXUXUXUXUXUXUXUX=X=XXXW.-. . . .[ [ [ { { { 3.=XjXLXIXIXJXLXJXLXLXJXJXJXJXJXJXLXLXPXJXIXVX`.s.u.u.u.d.d.d.s.UXUXUXUXUXUXUXUXUX",
"UXUXUXUXUXUXUXUX=X=X%X!.X.[ T [ [ { [ { { W.gXIXJXJXLXJXJXJXJXHXGXGXGXJXGXJXGXJXJXJXJXJXJXlXU.s.u.u.u.d.s.s.0.9.UXUXUXUXUXUXUXUX",
"UXUXUXUXUXUXUXUX=XXX!.-. . .[ [ [ [ { ,.yXIXJXJXJXJXGXzX9X2X,X>Xp >Xp >X>X,X1X7XqXzXcXJXGX0XU.s.u.u.u.u.s.0.9.y.UXUXUXUXUXUXUXUX",
"UXUXUXUXUXUXUX%X%X~.1. . .[ [ [ { { W.DXIXJXJXJXcX0X,Xp B.S #.%.] ] ] i.%.r.$.G J.Z.L.6XlX9XU.u.u.u.u.u.s.s.q.y.9.UXUXUXUXUXUXUX",
"UXUXUXUXUXUX%X%X XQ.X. .[ [ [ { [ 2.KXPXJXGXGXzX1Xi Z O.| | t.t.q.y.y.y.y.0.u.u.u.u.e.f.J.K.G.s.u.u.u.u.y.s.y.q.( / UXUXUXUXUXUX",
"UXUXUXUXUXUX%XXXW.-.[ [ [ [ [ [ { VXPXJXJXJXzX1XS } | | | t.t.t.t.y.y.y.y.u.u.u.u.u.u.u.s.g.g.s.u.u.u.u.y.y.y.8./ ^ UXUXUXUXUXUX",
"UXUXUXUXUXXXXX[.1. .[ [ [ [ [ { [.PXLXHXGXGX6XA.| | | | t.t.t.t.t.y.y.y.y.u.u.u.u.u.u.u.u.u.u.u.u.u.u.u.y.y.y.9./ _ Q UXUXUXUXUX",
"UXUXUXUXUXXX XW.o. .[ [ {  .{ { yXJXGXJXJXcX1Xo.| | | t.t.t.t.y.y.y.y.y.u.u.u.u.u.u.u.u.u.u.u.u.u.u.y.y.y.y.y.t.( ^ Q UXUXUXUXUX",
"UXUXUXUXXXXX~.1. .[ [ [ { { { { dXJXJXJXGXGX4X| t.| t.t.p.t.t.t.y.y.y.u.u.u.u.u.u.u.u.u.u.u.u.u.u.u.y.y.y.y.y.t.) Q E UXUXUXUXUX",
"UXUXUXUX X XW.-.[ [ { { { { { } dXGXJXGXJXGX5XO.| t.t.t.t.y.y.y.u.y.y.u.u.u.u.u.u.u.u.u.u.u.u.u.u.y.y.y.t.y.t.t.t.^ B b UXUXUXUX",
"UXUXUXUX~.~.3.X.[  .{ { { { { { sXGXGXGXGXGXvX*.t.t.t.t.t.y.y.y.y.y.u.u.u.u.u.u.u.u.u.u.u.u.y.u.y.y.y.y.y.t.t.t.O._ b b UXUXUXUX",
"UXUXUXUX~.W.,.[ { { { { { } } } OXGXGXGXGXGXJXdXa.t.t.y.y.y.p.y.u.u.u.u.s.u.u.u.s.u.u.u.u.u.y.y.y.y.y.q.t.t.t.t.| _ v c UXUXUXUX",
"UXUXUX~.~.R.-.{ { [ { { { } } } :.bXxXcXcXGXGXGXfXv.t.y.y.y.u.y.y.u.u.s.u.u.u.u.s.|.iXuXd.u.y.y.y.y.t.t.9.t.t.| | ) E c c UXUXUX",
"UXUXUX~.!.5.X.{ { { { } { } } } } Y.qXxXGXGXGXGXGXAXrXl.y.y.y.u.u.u.u.u.u.u.u.M.gXIXPXPXNX].q.y.t.y.t.t.t.| | t.| } E h h UXUXUX",
"UXUXUX!.W.6.{ { { { } { } } | } | ) Y.8XzXcXcXGXGXGXGXDXiX_.y.u.u.u.u.u.u.u.uXPXJXJXJXJXcX8Xe.t.y.t.t.t.t.t.| | | | W h h UXUXUX",
"UXUXUX!.R.<.{ { { } { } } } } | | | | =.I.0XxXcXGXGXcXGXJXJXNX;Xn.u.s.s.n.kXPXJXJXJXcX9X>XA.0.y.t.t.t.t.t.| | ) | } E h g UXUXUX",
"UXUXUXW.5.:.{ { } { } } } | | | | | | t.i.F.<X9XxXcXGXGXcXGXGXJXHXkX@X@XKXPXJXJXGXxX2Xp $.y.t.t.9.t.t.| | | | } } } W g r UXUXUX",
"UXUXUXR.5.:.{ { { } } } | | | | t.t.t.t.t.t.a.F.L.6XlXcXcXGXGXGXGXGXJXJXJXGXGXGX9XK.C w.y.t.t.t.t.t.| | | | ) } } } W g r UXUXUX",
"UXUXUXR.5.:.} } } } } | } | | | | t.t.t.y.y.p.y.e.G Z.1X7XzXcXcXGXGXGXGXGXGXGXcX8X&.u.y.y.9.t.t.t.) t.| | | } } } } I g q UXUXUX",
"UXUXUX5.2.:.} } } } } | | | | t.t.t.t.y.t.y.y.u.u.u.u.h.G.wXvXGXcXcXGXcXGXGXGXGXMXrXl.t.t.t.t.| t.| | | } ) } } { } I r w UXUXUX",
"UXUXUX2.2.:.} } } } | | | t.| t.t.t.t.t.y.y.y.u.u.q.u.u.s.;XcXcXcXGXGXcXcXGXcXGXGXGXAX-Xp.t.t.t.| | | ) ) } } } } { I r w UXUXUX",
"UXUXUX5.2.:.} } | } | | | t.t.t.y.t.y.y.u.y.u.0.u.u.s.M.jXJXcXcXvXxX7X6X0XxXcXGXGXGXGXJXfXz.O.| | | } | } } } } { { L q w UXUXUX",
"UXUXUX2.2.+.} | | | | | | t.t.t.t.y.t.y.y.u.0.u.u.u.@XGXGXvXcXvXlX1X= D F.3X0XvXcXGXcXcXGXBXv.) | | } } } } { { { { n 0 5 UXUXUX",
"UXUXUX2.2.+.| } | | | | t.t.t.t.y.y.y.y.u.u.u.u.u.d.MXcXxXvXzX6X> C e.u.u.r.H.7XlXcXGXGXGXGXmX<.| } } } } { { { { ' l 5 2 UXUXUX",
"UXUXUX<.<.>.| | | | | t.t.t.p.y.y.y.y.y.u.u.u.u.u.q./.6X9X6X>Xu $.u.0.y.0.0.0.f.5XzXcXcXcXcXGXwXO.} } } } { { { { Y g 2 1 UXUXUX",
"UXUXUX>.>.+.| | | | t.t.t.t.y.y.y.u.y.u.u.u.u.u.u.u.u.f.Z.N.F q.0.y.y.y.y.y.9.t.h.aXxXcXcXcXcXlX*.} { } { { { { [ P e 1 1 UXUXUX",
"UXUXUX>.>.>.i.| t.t.t.t.y.t.y.y.y.y.y.u.u.u.u.u.u.u.u.u.u.u.y.y.u.y.u.t.y.t.0.t.i.{.cXcXcXcXcXlXH.} } { { { { { [ K 6 < UXUXUXUX",
"UXUXUXUX>.+.i.| t.t.t.y.t.y.y.y.y.u.u.u.u.u.u.u.u.u.u.u.u.u.y.u.y.y.y.y.t.9.t.t.| j.cXcXcXcXcXqXH.} { { { { [ [ Y l 2 < UXUXUXUX",
"UXUXUXUXi.+.i.t.t.t.t.p.y.y.y.y.y.u.u.u.u.u.u.u.u.u.u.u.0.y.u.y.y.y.y.t.t.t.t.t.t.+.MXvXvXcXvX9XS.{ { { { [ [ [ J 0 $ # UXUXUXUX",
"UXUXUXUXi.i.i.i.t.t.t.y.y.y.y.u.u.u.u.u.u.u.u.u.u.u.u.u.u.u.y.u.y.y.9.t.t.t.t.t.) (.GXvXvXvXMX6XD.{ { ' [ [ [ T k 5 # UXUXUXUXUX",
"UXUXUXUXUX| t.t.t.t.y.y.y.y.u.y.c.s.u.u.u.u.u.u.u.u.u.u.u.y.y.t.t.t.y.t.t.t.| ) ) sXGXvXvXvXzX,X#.{ { [ ' [ [ P e $ @ UXUXUXUXUX",
"UXUXUXUXUX| | i.9.y.y.y.u.u.u.u.BXyX].s.u.s.u.u.u.0.u.y.y.y.y.y.y.t.t.t.| | | O.tXGXcXvXcXxX6Xi { [ ' [ [ [ T k 2 @ @ UXUXUXUXUX",
"UXUXUXUXUXUX| t.9.0.y.y.u.u.u.u.nXcXGXCXuX].x.u.u.0.u.u.y.y.y.t.t.t.9.9.| t.).fXGXcXvXvXvX7X, #.[ { ' [ [ [ J e $ @ UXUXUXUXUXUX",
"UXUXUXUXUXUX) ^ ( 9.0.u.u.u.u.u.nXcXvXcXcXGXSXhXiX-X|.m.l.k.k.k.k.v.).$XtXBXJXGXcXcXvXzX6X, Z { [ [ [ [ [ R y < O O UXUXUXUXUXUX",
"UXUXUXUXUXUXUX( ( 9.0.0.u.u.u.s.nXcXvXvXcXvXcXcXcXGXGXGXZXZXAXAXAXGXGXJXGXcXcXvXcXzX7X>X- @.[ [ [ [ [ T T k 6 @ O UXUXUXUXUXUXUX",
"UXUXUXUXUXUXUXUX/ / 0.0.u.u.u.u.pX7X9XzXxXxXcXvXvXcXvXvXxXcXcXcXcXcXvXvXvXxXzX9X2X> - Z ' { [ [ [ ! ! ! J 6 $ o UXUXUXUXUXUXUXUX",
"UXUXUXUXUXUXUXUX~ V ~ 7.0.u.u.u.g.G Z.P.>X,X2X7X9XlXzXzXxXzXzXzXlXlX9X7X2X,X, - C Z ! { { { [ [ ' [ [ P e $ o o UXUXUXUXUXUXUXUX",
"UXUXUXUXUXUXUXUXUXV N ~ 7.0.u.u.u.u.u.q.h.$.F A.B.N.: : ; ; ; ; ; i u V.A Z ` _ { { { { [ [ [ [ [ [ P e $ o o UXUXUXUXUXUXUXUXUX",
"UXUXUXUXUXUXUXUXUXUXN N V 7.u.u.u.u.u.u.u.u.y.t.y.t.y.t.t.t.t.| | } ) } } } } } { { ' [ [ ' [ [ T J e < o o UXUXUXUXUXUXUXUXUXUX",
"UXUXUXUXUXUXUXUXUXUXUXN M V 7.8.u.u.u.y.y.y.y.y.y.t.t.i.9.| | | | | } } } } { { { { { [ [ [ ! T J e # o o UXUXUXUXUXUXUXUXUXUXUX",
"UXUXUXUXUXUXUXUXUXUXUXUXM m N V 8.q.u.u.y.y.y.t.y.t.t.t.t.| | | } | } } } { { { { { { [ [ [ Y k 6 # o O UXUXUXUXUXUXUXUXUXUXUXUX",
"UXUXUXUXUXUXUXUXUXUXUXUXUXM m m M 7.9.y.y.y.t.y.t.t.9.t.| | ) | } } } } { } { { { { [ [ T J y 2 O . . UXUXUXUXUXUXUXUXUXUXUXUXUX",
"UXUXUXUXUXUXUXUXUXUXUXUXUXUXz z z x N / 9.t.y.t.t.i.| | | | | } } } } { { { { { [ [ ! P k 6 # o     UXUXUXUXUXUXUXUXUXUXUXUXUXUX",
"UXUXUXUXUXUXUXUXUXUXUXUXUXUXUXUXd f z x B ^ ) t.t.) | | | } | } } } } { ' ' { ! T J l 0 < O . . UXUXUXUXUXUXUXUXUXUXUXUXUXUXUXUX",
"UXUXUXUXUXUXUXUXUXUXUXUXUXUXUXUXUXd a a d d v B ^ ) | | | | } } } } } { ' T R n t w < + . .   UXUXUXUXUXUXUXUXUXUXUXUXUXUXUXUXUX",
"UXUXUXUXUXUXUXUXUXUXUXUXUXUXUXUXUXUXUXa 8 7 8 8 q j x c b b U U b b n l g q 5 1 @ o X .   UXUXUXUXUXUXUXUXUXUXUXUXUXUXUXUXUXUXUX",
"UXUXUXUXUXUXUXUXUXUXUXUXUXUXUXUXUXUXUXUXUX7 7 9 * * * * 4 2 9 4 1 2 1 $ @ + X . .     UXUXUXUXUXUXUXUXUXUXUXUXUXUXUXUXUXUXUXUXUX",
"UXUXUXUXUXUXUXUXUXUXUXUXUXUXUXUXUXUXUXUXUXUXUXUX* 9 * & & % % % % % + + + o X UXUXUXUXUXUXUXUXUXUXUXUXUXUXUXUXUXUXUXUXUXUXUXUXUX",
"UXUXUXUXUXUXUXUXUXUXUXUXUXUXUXUXUXUXUXUXUXUXUXUXUXUXUXUXUXUXUXUXUXUXUXUXUXUXUXUXUXUXUXUXUXUXUXUXUXUXUXUXUXUXUXUXUXUXUXUXUXUXUXUX",
"UXUXUXUXUXUXUXUXUXUXUXUXUXUXUXUXUXUXUXUXUXUXUXUXUXUXUXUXUXUXUXUXUXUXUXUXUXUXUXUXUXUXUXUXUXUXUXUXUXUXUXUXUXUXUXUXUXUXUXUXUXUXUXUX",
"UXUXUXUXUXUXUXUXUXUXUXUXUXUXUXUXUXUXUXUXUXUXUXUXUXUXUXUXUXUXUXUXUXUXUXUXUXUXUXUXUXUXUXUXUXUXUXUXUXUXUXUXUXUXUXUXUXUXUXUXUXUXUXUX"
};
