/* XPM */
static char *_5db210e5cc3436fa567f004bc385fe6[] = {
/* columns rows colors chars-per-pixel */
"16 16 154 2 ",
"   c #825A08",
".  c #845E08",
"X  c #885F09",
"o  c #8D6409",
"O  c #8D6709",
"+  c #956A09",
"@  c #966B09",
"#  c #9B6E0A",
"$  c #947109",
"%  c #997A0A",
"&  c #A4780A",
"*  c #A5790A",
"=  c #9B800A",
"-  c #9E880A",
";  c #B0810B",
":  c #B7860B",
">  c #B1880B",
",  c #B78C0B",
"<  c #BA880C",
"1  c #B7920B",
"2  c #BE9E0C",
"3  c #B5A50C",
"4  c #B8A40C",
"5  c #B6A90C",
"6  c #B9952A",
"7  c #C3950C",
"8  c #C0990C",
"9  c #C2A10C",
"0  c #C0A50C",
"q  c #CDA30D",
"w  c #C9AD0D",
"e  c #D2A00D",
"r  c #D0AD0D",
"t  c #DCAF0E",
"y  c #CABB0D",
"u  c #C9BC0D",
"i  c #D2B50D",
"p  c #D5BD0E",
"a  c #D7BF1B",
"s  c #E2B90E",
"d  c #E1BB0E",
"f  c #E2B312",
"g  c #E4B01D",
"h  c #E4BE1E",
"j  c #D0B423",
"k  c #C7BC33",
"l  c #E5B923",
"z  c #E6B62D",
"x  c #E6BD30",
"c  c #E6BD32",
"v  c #E8B538",
"b  c #E8B63A",
"n  c #E9B73E",
"m  c #E7B938",
"M  c #E7BB3B",
"N  c #DAC70F",
"B  c #D9CA0E",
"V  c #DCC80F",
"C  c #DFCB0F",
"Z  c #D3C119",
"A  c #D4C21F",
"S  c #E2C00E",
"D  c #E1C20E",
"F  c #E1C60F",
"G  c #E2C70F",
"H  c #E1C80F",
"J  c #E1CD0F",
"K  c #E1D10F",
"L  c #E1D20F",
"P  c #E2C010",
"I  c #E3C216",
"U  c #E1C810",
"Y  c #E1CD11",
"T  c #E3C916",
"R  c #E3C31A",
"E  c #E1D112",
"W  c #E2D214",
"Q  c #E2D216",
"!  c #E3D51E",
"~  c #D9C320",
"^  c #DCC624",
"/  c #DCC22F",
"(  c #CAC03D",
")  c #DED130",
"_  c #DCD03D",
"`  c #E5C028",
"'  c #E2D022",
"]  c #E3D629",
"[  c #E4D629",
"{  c #E6C330",
"}  c #E6C931",
"|  c #E5D433",
" . c #E7D037",
".. c #A49053",
"X. c #B09E5C",
"o. c #AEA762",
"O. c #B4AE63",
"+. c #B3AC7D",
"@. c #B8AE7F",
"#. c #C8BE4E",
"$. c #C2AD54",
"%. c #CBBC54",
"&. c #E9B842",
"*. c #EABD4D",
"=. c #EBBB53",
"-. c #EBBC54",
";. c #EBBC56",
":. c #E9CF49",
">. c #E2D341",
",. c #EACC51",
"<. c #EBC956",
"1. c #EBC55A",
"2. c #ECC05E",
"3. c #E3CF5F",
"4. c #E2D255",
"5. c #EDC461",
"6. c #EDC064",
"7. c #EEC26A",
"8. c #EEC56D",
"9. c #E9C86C",
"0. c #E3D768",
"q. c #E3DB79",
"w. c #E6D97E",
"e. c #999995",
"r. c #9B9B9B",
"t. c #BAB38A",
"y. c #B5B4A4",
"u. c #BDBAAB",
"i. c #BCBBB3",
"p. c #DECE8B",
"a. c #E0D085",
"s. c #E2D38F",
"d. c #EBD595",
"f. c #E2DC92",
"g. c #E8E292",
"h. c #D3CAA2",
"j. c #D4CFA7",
"k. c #DAD5B8",
"l. c #E2DFBA",
"z. c #ECE7AB",
"x. c #E6E1B2",
"c. c #EBE0B9",
"v. c #C7C6C2",
"b. c #DEDCC2",
"n. c LightGray",
"m. c #EAE4CD",
"M. c #E9E5D2",
"N. c #E9E7D3",
"B. c #EAE7D5",
"V. c #EDEBD6",
"C. c #EFEDDD",
"Z. c #EAEAE9",
"A. c #EDECE8",
"S. c None",
/* pixels */
"S.S.S.S.S.S.S.S.S.S.S.S.S.S.S.S.",
"S.S.S.S.S.8.5.1.<.,.:.S.S.S.S.S.",
"S.S.S.7.5.*.m c { }  .| [ S.S.S.",
"S.S.6.;.v 9.c.m.M.B.B.q.! Q S.S.",
"S.S.=.v d.Z.$.j a A k ( Q V S.S.",
"S.;.n g A.h.S G J L L L Y p w S.",
"S.&.z f p.n.w.' L ] g.>.U i 2 S.",
"S.m l s P %.b.V.z.C.x.^ S r 1 S.",
"S.c h S G J ) y.e.i.j./ d q > S.",
"S.` R G J L _ O.Z ~ k.u.t 7 * S.",
"S.I T U E L L J G S a.r.e ; + S.",
"S.S.B B l.f.0.4.3.s.v...< @ S.S.",
"S.S.y u #.o.+.t.@.X.6 : # o S.S.",
"S.S.S.5 3 4 0 9 2 , * o   S.S.S.",
"S.S.S.S.S.- = % @ o . S.S.S.S.S.",
"S.S.S.S.S.S.S.S.S.S.S.S.S.S.S.S."
};
